<svg width="35" height="34" viewBox="0 0 35 34" fill="none" xmlns="http://www.w3.org/2000/svg">
<g clip-path="url(#clip0_303_1472)">
<path d="M21.5415 9.04224L21.5415 9.04226C22.0311 8.90257 22.5379 8.83218 23.0471 8.83314M21.5415 9.04224L31.4486 26.7692C30.4995 25.4228 29.2412 24.3239 27.7793 23.5647C26.3172 22.8055 24.6943 22.4083 23.0469 22.4065H23.0465C22.7234 22.4065 22.4136 22.2782 22.1851 22.0497C21.9567 21.8213 21.8284 21.5114 21.8284 21.1884C21.8284 20.8653 21.9567 20.5555 22.1851 20.327C22.4136 20.0986 22.7234 19.9703 23.0465 19.9703C24.5234 19.9703 25.9397 19.3836 26.984 18.3393C28.0284 17.295 28.615 15.8786 28.615 14.4017C28.615 12.9248 28.0284 11.5084 26.984 10.4641C25.9399 9.41998 24.5238 8.83332 23.0471 8.83314M21.5415 9.04224L21.5375 9.04343M21.5415 9.04224L21.5375 9.04343M23.0471 8.83314L23.0465 9.18118V8.83314C23.0467 8.83314 23.0469 8.83314 23.0471 8.83314ZM21.5375 9.04343C21.3826 9.08961 21.2202 9.10453 21.0595 9.08733C20.8989 9.07012 20.7433 9.02112 20.6017 8.9432C20.4602 8.86527 20.3356 8.75997 20.2352 8.63342C20.1347 8.50687 20.0604 8.36161 20.0167 8.20608C19.9729 8.05056 19.9605 7.88788 19.9802 7.72752C20 7.56717 20.0514 7.41233 20.1315 7.27204C20.2116 7.13174 20.3189 7.00878 20.447 6.91033C20.5751 6.81187 20.7215 6.73988 20.8776 6.69855L20.8777 6.69861M21.5375 9.04343L20.8777 6.69861M20.8777 6.69861L20.8839 6.69683M20.8777 6.69861L20.8839 6.69683M20.8839 6.69683C21.5871 6.49664 22.3148 6.39568 23.0459 6.3969L23.0475 6.3969M20.8839 6.69683L23.0475 6.3969M23.0475 6.3969C24.6904 6.39213 26.2948 6.89379 27.6423 7.83358C28.9898 8.77337 30.015 10.1056 30.5782 11.6489C31.1414 13.1923 31.2153 14.8717 30.7897 16.4585C30.3642 18.0453 29.46 19.4624 28.2002 20.5169L27.7754 20.8725M23.0475 6.3969L27.7754 20.8725M27.7754 20.8725L28.2801 21.1009M27.7754 20.8725L28.2801 21.1009M28.2801 21.1009C30.3498 22.0374 32.1307 23.5113 33.4378 25.3693L33.4393 25.3714M28.2801 21.1009L33.4393 25.3714M33.4393 25.3714C33.5322 25.5014 33.5983 25.6484 33.6339 25.8042C33.6694 25.9599 33.6736 26.1211 33.6463 26.2784C33.619 26.4358 33.5606 26.5862 33.4747 26.7208C33.3888 26.8554 33.2769 26.9716 33.1457 27.0626L33.1456 27.0625M33.4393 25.3714L33.1456 27.0625M33.1456 27.0625L33.1416 27.0654M33.1456 27.0625L33.1416 27.0654M33.1416 27.0654C32.9384 27.2107 32.6948 27.2884 32.445 27.2877L33.1416 27.0654ZM17.5628 20.5175L17.14 20.8731L17.6433 21.1009C19.7129 22.0374 21.4939 23.5113 22.801 25.3693L22.806 25.3764L22.8113 25.3832C22.9128 25.5133 22.9869 25.6626 23.0289 25.8222C23.071 25.9818 23.0802 26.1482 23.056 26.3115C23.0318 26.4747 22.9746 26.6313 22.8881 26.7718C22.8015 26.9123 22.6873 27.0337 22.5523 27.1287C22.4174 27.2237 22.2646 27.2903 22.1031 27.3245C21.9417 27.3586 21.775 27.3596 21.6131 27.3274C21.4513 27.2951 21.2977 27.2303 21.1616 27.1369C21.0256 27.0435 20.9099 26.9235 20.8217 26.784L20.8172 26.777L20.8124 26.7701C19.8653 25.4211 18.6072 24.3199 17.1447 23.5598C15.6821 22.7996 14.058 22.4027 12.4097 22.4027C10.7613 22.4027 9.13725 22.7996 7.67468 23.5598C6.21212 24.3199 4.95408 25.4211 4.00692 26.7701L4.00614 26.7712C3.8948 26.9311 3.74634 27.0616 3.5735 27.1516C3.40066 27.2415 3.20858 27.2882 3.01373 27.2877L3.0116 27.2877C2.7617 27.2885 2.51787 27.2108 2.31457 27.0654L2.3129 27.0643C2.04939 26.8782 1.87041 26.5953 1.81522 26.2775C1.76004 25.9598 1.83313 25.6331 2.01845 25.3691C3.32554 23.5113 5.10645 22.0374 7.17602 21.1009L7.67933 20.8731L7.25658 20.5175C6.00015 19.4605 5.09913 18.0427 4.67568 16.4564C4.25222 14.8701 4.32681 13.1919 4.88934 11.6494C5.45187 10.1069 6.47512 8.77463 7.82036 7.83331C9.16561 6.89198 10.7678 6.3871 12.4097 6.3871C14.0516 6.3871 15.6537 6.89198 16.999 7.83331C18.3442 8.77463 19.3675 10.1069 19.93 11.6494C20.4925 13.1919 20.5671 14.8701 20.1437 16.4564C19.7202 18.0427 18.8192 19.4605 17.5628 20.5175ZM7.77958 11.308C7.1677 12.2237 6.84111 13.3003 6.84111 14.4017C6.84111 15.8786 7.4278 17.295 8.47211 18.3393C9.51641 19.3836 10.9328 19.9703 12.4097 19.9703C13.511 19.9703 14.5876 19.6437 15.5034 19.0318C16.4191 18.4199 17.1329 17.5502 17.5543 16.5327C17.9758 15.5152 18.0861 14.3955 17.8712 13.3153C17.6564 12.2351 17.126 11.2429 16.3472 10.4641C15.5685 9.68536 14.5762 9.155 13.496 8.94014C12.4158 8.72528 11.2962 8.83555 10.2787 9.25702C9.26115 9.67849 8.39146 10.3922 7.77958 11.308Z" fill="#4CAF4F" stroke="#4CAF4F" stroke-width="0.696069"/>
</g>
<defs>
<clipPath id="clip0_303_1472">
<rect width="33.4113" height="33.4113" fill="white" transform="translate(0.924561 0.306274)"/>
</clipPath>
</defs>
</svg>
